<svg width="83" height="75" viewBox="0 0 83 75" fill="none" xmlns="http://www.w3.org/2000/svg">
<path fill-rule="evenodd" clip-rule="evenodd" d="M42.071 75C61.4513 75 82.9552 62.5356 80.2362 38.5623C77.5172 14.589 61.4513 2.12464 42.071 2.12464C22.6907 2.12464 6.75064 13.0514 2.59345 38.5623C-1.56373 64.0733 22.6907 75 42.071 75Z" fill="#2C2B29"/>
<path fill-rule="evenodd" clip-rule="evenodd" d="M41.8116 67.9887C57.3579 67.9887 74.6076 57.9954 72.4265 38.7748C70.2454 19.5542 57.3579 9.56091 41.8116 9.56091C26.2653 9.56091 13.4788 18.3214 10.144 38.7748C6.80923 59.2282 26.2653 67.9887 41.8116 67.9887Z" fill="white"/>
<path fill-rule="evenodd" clip-rule="evenodd" d="M11.1289 28.0453C13.2355 28.0523 14.1507 20.5147 17.9127 17.0829C21.3663 13.9324 29.3004 12.8522 29.3004 9.20976C29.3004 1.59965 21.05 0 13.7647 0C6.47941 0 0 7.71894 0 15.329C0 22.9392 7.08846 28.0319 11.1289 28.0453Z" fill="#2C2B29"/>
<path fill-rule="evenodd" clip-rule="evenodd" d="M71.6765 28.0453C69.5699 28.0523 68.6548 20.5147 64.8927 17.0829C61.4391 13.9324 53.505 12.8522 53.505 9.20976C53.505 1.59965 61.7554 0 69.0407 0C76.326 0 82.8054 7.71894 82.8054 15.329C82.8054 22.9392 75.717 28.0319 71.6765 28.0453Z" fill="#2C2B29"/>
<path fill-rule="evenodd" clip-rule="evenodd" d="M58.5265 53.657C64.0402 52.3422 66.3392 50.0233 66.3392 42.5301C66.3392 35.0368 62.827 27.4288 56.7796 27.4288C50.7322 27.4288 46.7166 32.8394 46.7166 40.3326C46.7166 47.8258 53.0128 54.9719 58.5265 53.657Z" fill="#2B2A28"/>
<path fill-rule="evenodd" clip-rule="evenodd" d="M56.5078 44.1511C58.0082 44.1511 58.4545 43.768 59.1327 42.9081C59.8932 41.9439 60.4604 40.8254 60.2749 38.5151C59.9651 34.655 58.3383 32.8792 55.1555 32.8792C51.9726 32.8792 51.3518 35.3265 51.3518 38.5151C51.3518 41.7038 53.325 44.1511 56.5078 44.1511Z" fill="white"/>
<path fill-rule="evenodd" clip-rule="evenodd" d="M24.4911 53.657C18.9774 52.3422 16.6784 50.0233 16.6784 42.5301C16.6784 35.0368 20.1906 27.4288 26.238 27.4288C32.2853 27.4288 36.301 32.8394 36.301 40.3326C36.301 47.8258 30.0048 54.9719 24.4911 53.657Z" fill="#2B2A28"/>
<path fill-rule="evenodd" clip-rule="evenodd" d="M26.51 44.1511C25.0096 44.1511 24.5633 43.768 23.8851 42.9081C23.1246 41.9439 22.5575 40.8254 22.7429 38.5151C23.0528 34.655 24.6795 32.8792 27.8624 32.8792C31.0452 32.8792 31.666 35.3265 31.666 38.5151C31.666 41.7038 29.6928 44.1511 26.51 44.1511Z" fill="white"/>
<path fill-rule="evenodd" clip-rule="evenodd" d="M41.6581 58.6402C44.6544 58.6402 47.5599 54.2303 47.5599 52.339C47.5599 50.4478 44.6112 50.1416 41.6149 50.1416C38.6187 50.1416 35.6699 50.4478 35.6699 52.339C35.6699 54.2303 38.6619 58.6402 41.6581 58.6402Z" fill="#2C2B29"/>
</svg>
